
# o Cube
v 1.182881 -3.215025 -11.894064
v 0.933808 4.743714 -11.644991
v 1.182881 -3.215025 -9.135605
v 0.933808 4.743714 -9.384678
v -1.575577 -3.215025 -11.894064
v -1.326504 4.743714 -11.644991
v -1.575577 -3.215025 -9.135605
v -1.326504 4.743714 -9.384678
v 1.518209 1.980075 -12.229391
v -1.910905 1.980075 -8.800278
v 1.518209 1.980075 -8.800278
v -1.910905 1.980075 -12.229391
v -1.910905 1.617821 -8.800278
v -2.270548 0.841346 -8.440634
v -2.572691 0.339270 -8.138492
v -2.748765 -0.218608 -7.962418
v -2.748765 -0.757886 -7.962418
v -2.748765 -1.297164 -7.962418
v -2.686562 -1.716817 -8.024620
v -2.560036 -2.216219 -8.151147
v -2.179058 -2.715622 -8.532124
v 1.786362 -2.715622 -12.497545
v 2.167340 -2.216219 -12.878522
v 2.293866 -1.716817 -13.005049
v 2.356069 -1.297164 -13.067251
v 2.356069 -0.757886 -13.067251
v 2.356069 -0.218608 -13.067251
v 2.179995 0.339270 -12.891177
v 1.877852 0.841346 -12.589035
v 1.518209 1.617821 -12.229391
v 1.786362 -2.715622 -8.532124
v 2.167340 -2.216219 -8.151147
v 2.293866 -1.716817 -8.024620
v 2.356069 -1.297164 -7.962418
v 2.356069 -0.757886 -7.962418
v 2.356069 -0.218608 -7.962418
v 2.179995 0.339270 -8.138492
v 1.877852 0.841346 -8.440634
v 1.518209 1.617821 -8.800278
v -2.179058 -2.715622 -12.497545
v -2.560036 -2.216219 -12.878522
v -2.686562 -1.716817 -13.005049
v -2.748765 -1.297164 -13.067251
v -2.748765 -0.757886 -13.067251
v -2.748765 -0.218608 -13.067251
v -2.572691 0.339270 -12.891177
v -2.270548 0.841346 -12.589035
v -1.910905 1.617821 -12.229391
v 1.205031 2.300275 -11.916213
v 1.205031 2.596360 -11.916213
v 1.205031 2.892445 -11.916213
v 1.205031 3.188530 -11.916213
v 0.933808 3.549811 -11.644991
v 0.933808 3.788592 -11.644991
v 0.933808 4.027372 -11.644991
v 0.933808 4.266153 -11.644991
v 0.933808 4.504934 -11.644991
v 1.205031 2.300275 -9.113456
v 1.205031 2.596360 -9.113456
v 1.205031 2.892445 -9.113456
v 1.205031 3.188530 -9.113456
v 0.933808 3.549811 -9.384678
v 0.933808 3.788592 -9.384678
v 0.933808 4.027372 -9.384678
v 0.933808 4.266153 -9.384678
v 0.933808 4.504934 -9.384678
v -1.597726 2.300275 -11.916213
v -1.597726 2.596360 -11.916213
v -1.597726 2.892445 -11.916213
v -1.597726 3.188530 -11.916213
v -1.326504 3.549811 -11.644991
v -1.326504 3.788592 -11.644991
v -1.326504 4.027372 -11.644991
v -1.326504 4.266153 -11.644991
v -1.326504 4.504934 -11.644991
v -1.326504 4.504934 -9.384678
v -1.326504 4.266153 -9.384678
v -1.326504 4.027372 -9.384678
v -1.326504 3.788592 -9.384678
v -1.326504 3.549811 -9.384678
v -1.597726 3.188530 -9.113456
v -1.597726 2.892445 -9.113456
v -1.597726 2.596360 -9.113456
v -1.597726 2.300275 -9.113456
vn -0.0000 1.0000 -0.0000
vn -0.0000 0.7704 -0.6375
vn 0.6375 0.7704 -0.0000
vn -0.0000 -1.0000 -0.0000
vn -0.6375 0.7704 -0.0000
vn -0.0000 0.7704 0.6375
vn -0.0000 -0.6992 0.7149
vn -0.7149 -0.6992 -0.0000
vn 0.7149 -0.6992 -0.0000
vn -0.0000 -0.6992 -0.7149
vn -0.0000 -0.0000 1.0000
vn -0.0000 -0.4203 0.9074
vn -0.0000 -0.5156 0.8568
vn -0.0000 -0.3010 0.9536
vn -0.0000 0.1466 0.9892
vn -0.0000 0.2456 0.9694
vn -0.0000 0.6065 0.7951
vn -1.0000 -0.0000 -0.0000
vn -0.9074 -0.4203 -0.0000
vn -0.8568 -0.5156 -0.0000
vn -0.9536 -0.3010 -0.0000
vn -0.9892 0.1466 -0.0000
vn -0.9694 0.2456 -0.0000
vn -0.7951 0.6065 -0.0000
vn 1.0000 -0.0000 -0.0000
vn 0.9074 -0.4203 -0.0000
vn 0.8568 -0.5156 -0.0000
vn 0.9536 -0.3010 -0.0000
vn 0.9892 0.1466 -0.0000
vn 0.9694 0.2456 -0.0000
vn 0.7951 0.6065 -0.0000
vn -0.0000 -0.0000 -1.0000
vn -0.0000 -0.4203 -0.9074
vn -0.0000 -0.5156 -0.8568
vn -0.0000 -0.3010 -0.9536
vn -0.0000 0.1466 -0.9892
vn -0.0000 0.2456 -0.9694
vn -0.0000 0.6065 -0.7951
vn -0.0000 -0.6004 -0.7997
vn 0.7997 -0.6004 -0.0000
vn -0.7997 -0.6004 -0.0000
vn -0.0000 -0.6004 0.7997
vt 0.875000 0.500000
vt 0.625000 0.750000
vt 0.625000 0.500000
vt 0.612500 1.000000
vt 0.612500 0.750000
vt 0.625000 0.000000
vt 0.612500 0.250000
vt 0.612500 0.000000
vt 0.375000 0.500000
vt 0.125000 0.750000
vt 0.125000 0.500000
vt 0.612500 0.500000
vt 0.625000 0.250000
vt 0.500000 0.250000
vt 0.487500 0.500000
vt 0.487500 0.250000
vt 0.500000 0.500000
vt 0.487500 0.750000
vt 0.500000 0.000000
vt 0.487500 0.000000
vt 0.500000 0.750000
vt 0.487500 1.000000
vt 0.512500 0.250000
vt 0.525000 0.250000
vt 0.512500 0.500000
vt 0.537500 0.250000
vt 0.525000 0.500000
vt 0.550000 0.250000
vt 0.537500 0.500000
vt 0.562500 0.250000
vt 0.550000 0.500000
vt 0.575000 0.250000
vt 0.562500 0.500000
vt 0.587500 0.250000
vt 0.575000 0.500000
vt 0.600000 0.250000
vt 0.587500 0.500000
vt 0.600000 0.500000
vt 0.512500 0.750000
vt 0.525000 0.750000
vt 0.537500 0.750000
vt 0.550000 0.750000
vt 0.562500 0.750000
vt 0.575000 0.750000
vt 0.587500 0.750000
vt 0.600000 0.750000
vt 0.512500 0.000000
vt 0.525000 0.000000
vt 0.537500 0.000000
vt 0.550000 0.000000
vt 0.562500 0.000000
vt 0.575000 0.000000
vt 0.587500 0.000000
vt 0.600000 0.000000
vt 0.500000 1.000000
vt 0.512500 1.000000
vt 0.525000 1.000000
vt 0.537500 1.000000
vt 0.550000 1.000000
vt 0.562500 1.000000
vt 0.575000 1.000000
vt 0.587500 1.000000
vt 0.600000 1.000000
vt 0.387500 0.750000
vt 0.375000 1.000000
vt 0.375000 0.750000
vt 0.400000 0.750000
vt 0.387500 1.000000
vt 0.412500 0.750000
vt 0.400000 1.000000
vt 0.425000 0.750000
vt 0.412500 1.000000
vt 0.437500 0.750000
vt 0.425000 1.000000
vt 0.450000 0.750000
vt 0.437500 1.000000
vt 0.462500 0.750000
vt 0.450000 1.000000
vt 0.475000 0.750000
vt 0.462500 1.000000
vt 0.475000 1.000000
vt 0.387500 0.000000
vt 0.375000 0.250000
vt 0.375000 0.000000
vt 0.400000 0.000000
vt 0.387500 0.250000
vt 0.412500 0.000000
vt 0.400000 0.250000
vt 0.425000 0.000000
vt 0.412500 0.250000
vt 0.437500 0.000000
vt 0.425000 0.250000
vt 0.450000 0.000000
vt 0.437500 0.250000
vt 0.462500 0.000000
vt 0.450000 0.250000
vt 0.475000 0.000000
vt 0.462500 0.250000
vt 0.475000 0.250000
vt 0.387500 0.500000
vt 0.400000 0.500000
vt 0.412500 0.500000
vt 0.425000 0.500000
vt 0.437500 0.500000
vt 0.450000 0.500000
vt 0.462500 0.500000
vt 0.475000 0.500000
vt 0.875000 0.750000
vt 0.625000 1.000000
s 0
f 5/1/1 3/2/1 1/3/1
f 3/2/2 21/4/2 31/5/2
f 7/6/3 40/7/3 21/8/3
f 2/9/4 8/10/4 6/11/4
f 1/3/5 31/5/5 22/12/5
f 5/13/6 22/12/6 40/7/6
f 12/14/7 49/15/7 67/16/7
f 9/17/8 58/18/8 49/15/8
f 10/19/9 67/16/9 84/20/9
f 11/21/10 84/22/10 58/18/10
f 48/23/11 9/17/11 12/14/11
f 47/24/12 30/25/12 48/23/12
f 46/26/13 29/27/13 47/24/13
f 45/28/14 28/29/14 46/26/14
f 44/30/11 27/31/11 45/28/11
f 43/32/11 26/33/11 44/30/11
f 42/34/15 25/35/15 43/32/15
f 41/36/16 24/37/16 42/34/16
f 40/7/17 23/38/17 41/36/17
f 30/25/18 11/21/18 9/17/18
f 29/27/19 39/39/19 30/25/19
f 28/29/20 38/40/20 29/27/20
f 27/31/21 37/41/21 28/29/21
f 26/33/18 36/42/18 27/31/18
f 25/35/18 35/43/18 26/33/18
f 24/37/22 34/44/22 25/35/22
f 23/38/23 33/45/23 24/37/23
f 22/12/24 32/46/24 23/38/24
f 13/47/25 12/14/25 10/19/25
f 14/48/26 48/23/26 13/47/26
f 15/49/27 47/24/27 14/48/27
f 16/50/28 46/26/28 15/49/28
f 17/51/25 45/28/25 16/50/25
f 18/52/25 44/30/25 17/51/25
f 19/53/29 43/32/29 18/52/29
f 20/54/30 42/34/30 19/53/30
f 21/8/31 41/36/31 20/54/31
f 39/39/32 10/55/32 11/21/32
f 38/40/33 13/56/33 39/39/33
f 37/41/34 14/57/34 38/40/34
f 36/42/35 15/58/35 37/41/35
f 35/43/32 16/59/32 36/42/32
f 34/44/32 17/60/32 35/43/32
f 33/45/36 18/61/36 34/44/36
f 32/46/37 19/62/37 33/45/37
f 31/5/38 20/63/38 32/46/38
f 66/64/32 8/65/32 4/66/32
f 65/67/32 76/68/32 66/64/32
f 64/69/32 77/70/32 65/67/32
f 63/71/32 78/72/32 64/69/32
f 62/73/32 79/74/32 63/71/32
f 61/75/39 80/76/39 62/73/39
f 60/77/32 81/78/32 61/75/32
f 59/79/32 82/80/32 60/77/32
f 58/18/32 83/81/32 59/79/32
f 76/82/25 6/83/25 8/84/25
f 77/85/25 75/86/25 76/82/25
f 78/87/25 74/88/25 77/85/25
f 79/89/25 73/90/25 78/87/25
f 80/91/25 72/92/25 79/89/25
f 81/93/40 71/94/40 80/91/40
f 82/95/25 70/96/25 81/93/25
f 83/97/25 69/98/25 82/95/25
f 84/20/25 68/99/25 83/97/25
f 57/100/18 4/66/18 2/9/18
f 56/101/18 66/64/18 57/100/18
f 55/102/18 65/67/18 56/101/18
f 54/103/18 64/69/18 55/102/18
f 53/104/18 63/71/18 54/103/18
f 52/105/41 62/73/41 53/104/41
f 51/106/18 61/75/18 52/105/18
f 50/107/18 60/77/18 51/106/18
f 49/15/18 59/79/18 50/107/18
f 75/86/11 2/9/11 6/83/11
f 74/88/11 57/100/11 75/86/11
f 73/90/11 56/101/11 74/88/11
f 72/92/11 55/102/11 73/90/11
f 71/94/11 54/103/11 72/92/11
f 70/96/42 53/104/42 71/94/42
f 69/98/11 52/105/11 70/96/11
f 68/99/11 51/106/11 69/98/11
f 67/16/11 50/107/11 68/99/11
f 5/1/1 7/108/1 3/2/1
f 3/2/2 7/109/2 21/4/2
f 7/6/3 5/13/3 40/7/3
f 2/9/4 4/66/4 8/10/4
f 1/3/5 3/2/5 31/5/5
f 5/13/6 1/3/6 22/12/6
f 12/14/7 9/17/7 49/15/7
f 9/17/8 11/21/8 58/18/8
f 10/19/9 12/14/9 67/16/9
f 11/21/10 10/55/10 84/22/10
f 48/23/11 30/25/11 9/17/11
f 47/24/12 29/27/12 30/25/12
f 46/26/13 28/29/13 29/27/13
f 45/28/14 27/31/14 28/29/14
f 44/30/11 26/33/11 27/31/11
f 43/32/11 25/35/11 26/33/11
f 42/34/15 24/37/15 25/35/15
f 41/36/16 23/38/16 24/37/16
f 40/7/17 22/12/17 23/38/17
f 30/25/18 39/39/18 11/21/18
f 29/27/19 38/40/19 39/39/19
f 28/29/20 37/41/20 38/40/20
f 27/31/21 36/42/21 37/41/21
f 26/33/18 35/43/18 36/42/18
f 25/35/18 34/44/18 35/43/18
f 24/37/22 33/45/22 34/44/22
f 23/38/23 32/46/23 33/45/23
f 22/12/24 31/5/24 32/46/24
f 13/47/25 48/23/25 12/14/25
f 14/48/26 47/24/26 48/23/26
f 15/49/27 46/26/27 47/24/27
f 16/50/28 45/28/28 46/26/28
f 17/51/25 44/30/25 45/28/25
f 18/52/25 43/32/25 44/30/25
f 19/53/29 42/34/29 43/32/29
f 20/54/30 41/36/30 42/34/30
f 21/8/31 40/7/31 41/36/31
f 39/39/32 13/56/32 10/55/32
f 38/40/33 14/57/33 13/56/33
f 37/41/34 15/58/34 14/57/34
f 36/42/35 16/59/35 15/58/35
f 35/43/32 17/60/32 16/59/32
f 34/44/32 18/61/32 17/60/32
f 33/45/36 19/62/36 18/61/36
f 32/46/37 20/63/37 19/62/37
f 31/5/38 21/4/38 20/63/38
f 66/64/32 76/68/32 8/65/32
f 65/67/32 77/70/32 76/68/32
f 64/69/32 78/72/32 77/70/32
f 63/71/32 79/74/32 78/72/32
f 62/73/32 80/76/32 79/74/32
f 61/75/39 81/78/39 80/76/39
f 60/77/32 82/80/32 81/78/32
f 59/79/32 83/81/32 82/80/32
f 58/18/32 84/22/32 83/81/32
f 76/82/25 75/86/25 6/83/25
f 77/85/25 74/88/25 75/86/25
f 78/87/25 73/90/25 74/88/25
f 79/89/25 72/92/25 73/90/25
f 80/91/25 71/94/25 72/92/25
f 81/93/40 70/96/40 71/94/40
f 82/95/25 69/98/25 70/96/25
f 83/97/25 68/99/25 69/98/25
f 84/20/25 67/16/25 68/99/25
f 57/100/18 66/64/18 4/66/18
f 56/101/18 65/67/18 66/64/18
f 55/102/18 64/69/18 65/67/18
f 54/103/18 63/71/18 64/69/18
f 53/104/18 62/73/18 63/71/18
f 52/105/41 61/75/41 62/73/41
f 51/106/18 60/77/18 61/75/18
f 50/107/18 59/79/18 60/77/18
f 49/15/18 58/18/18 59/79/18
f 75/86/11 57/100/11 2/9/11
f 74/88/11 56/101/11 57/100/11
f 73/90/11 55/102/11 56/101/11
f 72/92/11 54/103/11 55/102/11
f 71/94/11 53/104/11 54/103/11
f 70/96/42 52/105/42 53/104/42
f 69/98/11 51/106/11 52/105/11
f 68/99/11 50/107/11 51/106/11
f 67/16/11 49/15/11 50/107/11
o Cube.001
v 1.379229 -4.994027 -1.379229
v 1.130156 2.964712 -1.130156
v 1.379229 -4.994027 1.379229
v 1.130156 2.964712 1.130156
v -1.379229 -4.994027 -1.379229
v -1.130156 2.964712 -1.130156
v -1.379229 -4.994027 1.379229
v -1.130156 2.964712 1.130156
v 1.714557 0.201072 -1.714557
v -1.714557 0.201072 1.714557
v 1.714557 0.201072 1.714557
v -1.714557 0.201072 -1.714557
v -1.714557 -0.161181 1.714557
v -2.074200 -0.937656 2.074200
v -2.376343 -1.439733 2.376343
v -2.552417 -1.997611 2.552417
v -2.552417 -2.536889 2.552417
v -2.552417 -3.076166 2.552417
v -2.490214 -3.495819 2.490214
v -2.363688 -3.995222 2.363688
v -1.982710 -4.494625 1.982710
v 1.982710 -4.494625 -1.982710
v 2.363688 -3.995222 -2.363688
v 2.490214 -3.495819 -2.490214
v 2.552417 -3.076166 -2.552417
v 2.552417 -2.536889 -2.552417
v 2.552417 -1.997611 -2.552417
v 2.376343 -1.439732 -2.376343
v 2.074200 -0.937656 -2.074200
v 1.714557 -0.161181 -1.714557
v 1.982710 -4.494625 1.982710
v 2.363688 -3.995222 2.363688
v 2.490214 -3.495819 2.490214
v 2.552417 -3.076166 2.552417
v 2.552417 -2.536889 2.552417
v 2.552417 -1.997611 2.552417
v 2.376343 -1.439732 2.376343
v 2.074200 -0.937656 2.074200
v 1.714557 -0.161181 1.714557
v -1.982710 -4.494625 -1.982710
v -2.363688 -3.995222 -2.363688
v -2.490214 -3.495819 -2.490214
v -2.552417 -3.076166 -2.552417
v -2.552417 -2.536889 -2.552417
v -2.552417 -1.997611 -2.552417
v -2.376343 -1.439732 -2.376343
v -2.074200 -0.937656 -2.074200
v -1.714557 -0.161181 -1.714557
v 1.401379 0.521273 -1.401379
v 1.401379 0.817358 -1.401379
v 1.401379 1.113443 -1.401379
v 1.401379 1.409528 -1.401379
v 1.130156 1.770809 -1.130156
v 1.130156 2.009589 -1.130156
v 1.130156 2.248370 -1.130156
v 1.130156 2.487151 -1.130156
v 1.130156 2.725932 -1.130156
v 1.401379 0.521273 1.401379
v 1.401379 0.817358 1.401379
v 1.401379 1.113443 1.401379
v 1.401379 1.409528 1.401379
v 1.130156 1.770809 1.130156
v 1.130156 2.009589 1.130156
v 1.130156 2.248370 1.130156
v 1.130156 2.487151 1.130156
v 1.130156 2.725932 1.130156
v -1.401379 0.521273 -1.401379
v -1.401379 0.817358 -1.401379
v -1.401379 1.113443 -1.401379
v -1.401379 1.409528 -1.401379
v -1.130156 1.770809 -1.130156
v -1.130156 2.009589 -1.130156
v -1.130156 2.248370 -1.130156
v -1.130156 2.487151 -1.130156
v -1.130156 2.725932 -1.130156
v -1.130156 2.725932 1.130156
v -1.130156 2.487151 1.130156
v -1.130156 2.248370 1.130156
v -1.130156 2.009589 1.130156
v -1.130156 1.770809 1.130156
v -1.401379 1.409528 1.401379
v -1.401379 1.113443 1.401379
v -1.401379 0.817358 1.401379
v -1.401379 0.521273 1.401379
vn -0.0000 1.0000 -0.0000
vn -0.0000 0.7704 -0.6375
vn 0.6375 0.7704 -0.0000
vn -0.0000 -1.0000 -0.0000
vn -0.6375 0.7704 -0.0000
vn -0.0000 0.7704 0.6375
vn -0.0000 -0.6992 0.7149
vn -0.7149 -0.6992 -0.0000
vn 0.7149 -0.6992 -0.0000
vn -0.0000 -0.6992 -0.7149
vn -0.0000 -0.0000 1.0000
vn -0.0000 -0.4203 0.9074
vn -0.0000 -0.5156 0.8568
vn -0.0000 -0.3010 0.9536
vn -0.0000 0.1466 0.9892
vn -0.0000 0.2456 0.9694
vn -0.0000 0.6065 0.7951
vn -1.0000 -0.0000 -0.0000
vn -0.9074 -0.4203 -0.0000
vn -0.8568 -0.5156 -0.0000
vn -0.9536 -0.3010 -0.0000
vn -0.9892 0.1466 -0.0000
vn -0.9694 0.2456 -0.0000
vn -0.7951 0.6065 -0.0000
vn 1.0000 -0.0000 -0.0000
vn 0.9074 -0.4203 -0.0000
vn 0.8568 -0.5156 -0.0000
vn 0.9536 -0.3010 -0.0000
vn 0.9892 0.1466 -0.0000
vn 0.9694 0.2456 -0.0000
vn 0.7951 0.6065 -0.0000
vn -0.0000 -0.0000 -1.0000
vn -0.0000 -0.4203 -0.9074
vn -0.0000 -0.5156 -0.8568
vn -0.0000 -0.3010 -0.9536
vn -0.0000 0.1466 -0.9892
vn -0.0000 0.2456 -0.9694
vn -0.0000 0.6065 -0.7951
vn -0.0000 -0.6004 -0.7997
vn 0.7997 -0.6004 -0.0000
vn -0.7997 -0.6004 -0.0000
vn -0.0000 -0.6004 0.7997
vt 0.875000 0.500000
vt 0.625000 0.750000
vt 0.625000 0.500000
vt 0.612500 1.000000
vt 0.612500 0.750000
vt 0.625000 0.000000
vt 0.612500 0.250000
vt 0.612500 0.000000
vt 0.375000 0.500000
vt 0.125000 0.750000
vt 0.125000 0.500000
vt 0.612500 0.500000
vt 0.625000 0.250000
vt 0.500000 0.250000
vt 0.487500 0.500000
vt 0.487500 0.250000
vt 0.500000 0.500000
vt 0.487500 0.750000
vt 0.500000 0.000000
vt 0.487500 0.000000
vt 0.500000 0.750000
vt 0.487500 1.000000
vt 0.512500 0.250000
vt 0.525000 0.250000
vt 0.512500 0.500000
vt 0.537500 0.250000
vt 0.525000 0.500000
vt 0.550000 0.250000
vt 0.537500 0.500000
vt 0.562500 0.250000
vt 0.550000 0.500000
vt 0.575000 0.250000
vt 0.562500 0.500000
vt 0.587500 0.250000
vt 0.575000 0.500000
vt 0.600000 0.250000
vt 0.587500 0.500000
vt 0.600000 0.500000
vt 0.512500 0.750000
vt 0.525000 0.750000
vt 0.537500 0.750000
vt 0.550000 0.750000
vt 0.562500 0.750000
vt 0.575000 0.750000
vt 0.587500 0.750000
vt 0.600000 0.750000
vt 0.512500 0.000000
vt 0.525000 0.000000
vt 0.537500 0.000000
vt 0.562500 0.000000
vt 0.550000 0.000000
vt 0.575000 0.000000
vt 0.587500 0.000000
vt 0.600000 0.000000
vt 0.500000 1.000000
vt 0.512500 1.000000
vt 0.525000 1.000000
vt 0.537500 1.000000
vt 0.550000 1.000000
vt 0.562500 1.000000
vt 0.575000 1.000000
vt 0.587500 1.000000
vt 0.600000 1.000000
vt 0.387500 0.750000
vt 0.375000 1.000000
vt 0.375000 0.750000
vt 0.400000 0.750000
vt 0.387500 1.000000
vt 0.412500 0.750000
vt 0.400000 1.000000
vt 0.425000 0.750000
vt 0.412500 1.000000
vt 0.437500 0.750000
vt 0.425000 1.000000
vt 0.450000 0.750000
vt 0.437500 1.000000
vt 0.462500 0.750000
vt 0.450000 1.000000
vt 0.475000 0.750000
vt 0.462500 1.000000
vt 0.475000 1.000000
vt 0.387500 0.000000
vt 0.375000 0.250000
vt 0.375000 0.000000
vt 0.400000 0.000000
vt 0.387500 0.250000
vt 0.412500 0.000000
vt 0.400000 0.250000
vt 0.425000 0.000000
vt 0.412500 0.250000
vt 0.437500 0.000000
vt 0.425000 0.250000
vt 0.450000 0.250000
vt 0.437500 0.250000
vt 0.462500 0.000000
vt 0.450000 0.000000
vt 0.475000 0.000000
vt 0.462500 0.250000
vt 0.475000 0.250000
vt 0.387500 0.500000
vt 0.400000 0.500000
vt 0.412500 0.500000
vt 0.425000 0.500000
vt 0.437500 0.500000
vt 0.462500 0.500000
vt 0.450000 0.500000
vt 0.475000 0.500000
vt 0.875000 0.750000
vt 0.625000 1.000000
s 1
f 89/110/43 87/111/43 85/112/43
f 87/111/44 105/113/44 115/114/44
f 91/115/45 124/116/45 105/117/45
f 86/118/46 92/119/46 90/120/46
f 85/112/47 115/114/47 106/121/47
f 89/122/48 106/121/48 124/116/48
f 96/123/49 133/124/49 151/125/49
f 93/126/50 142/127/50 133/124/50
f 94/128/51 151/125/51 168/129/51
f 95/130/52 168/131/52 142/127/52
f 132/132/53 93/126/53 96/123/53
f 131/133/54 114/134/54 132/132/54
f 130/135/55 113/136/55 131/133/55
f 129/137/56 112/138/56 130/135/56
f 128/139/53 111/140/53 129/137/53
f 127/141/53 110/142/53 128/139/53
f 126/143/57 109/144/57 127/141/57
f 125/145/58 108/146/58 126/143/58
f 124/116/59 107/147/59 125/145/59
f 114/134/60 95/130/60 93/126/60
f 113/136/61 123/148/61 114/134/61
f 112/138/62 122/149/62 113/136/62
f 111/140/63 121/150/63 112/138/63
f 110/142/60 120/151/60 111/140/60
f 109/144/60 119/152/60 110/142/60
f 108/146/64 118/153/64 109/144/64
f 107/147/65 117/154/65 108/146/65
f 106/121/66 116/155/66 107/147/66
f 97/156/67 96/123/67 94/128/67
f 98/157/68 132/132/68 97/156/68
f 98/157/69 130/135/69 131/133/69
f 99/158/70 129/137/70 130/135/70
f 101/159/67 129/137/67 100/160/67
f 102/161/67 128/139/67 101/159/67
f 103/162/71 127/141/71 102/161/71
f 104/163/72 126/143/72 103/162/72
f 105/117/73 125/145/73 104/163/73
f 123/148/74 94/164/74 95/130/74
f 122/149/75 97/165/75 123/148/75
f 121/150/76 98/166/76 122/149/76
f 120/151/77 99/167/77 121/150/77
f 119/152/74 100/168/74 120/151/74
f 118/153/74 101/169/74 119/152/74
f 117/154/78 102/170/78 118/153/78
f 116/155/79 103/171/79 117/154/79
f 115/114/80 104/172/80 116/155/80
f 150/173/74 92/174/74 88/175/74
f 149/176/74 160/177/74 150/173/74
f 148/178/74 161/179/74 149/176/74
f 147/180/74 162/181/74 148/178/74
f 146/182/74 163/183/74 147/180/74
f 145/184/81 164/185/81 146/182/81
f 144/186/74 165/187/74 145/184/74
f 143/188/74 166/189/74 144/186/74
f 142/127/74 167/190/74 143/188/74
f 160/191/67 90/192/67 92/193/67
f 161/194/67 159/195/67 160/191/67
f 162/196/67 158/197/67 161/194/67
f 163/198/67 157/199/67 162/196/67
f 164/200/67 156/201/67 163/198/67
f 164/200/82 154/202/82 155/203/82
f 166/204/67 154/202/67 165/205/67
f 167/206/67 153/207/67 166/204/67
f 168/129/67 152/208/67 167/206/67
f 141/209/60 88/175/60 86/118/60
f 140/210/60 150/173/60 141/209/60
f 139/211/60 149/176/60 140/210/60
f 138/212/60 148/178/60 139/211/60
f 137/213/60 147/180/60 138/212/60
f 137/213/83 145/184/83 146/182/83
f 135/214/60 145/184/60 136/215/60
f 134/216/60 144/186/60 135/214/60
f 133/124/60 143/188/60 134/216/60
f 159/195/53 86/118/53 90/192/53
f 158/197/53 141/209/53 159/195/53
f 157/199/53 140/210/53 158/197/53
f 156/201/53 139/211/53 157/199/53
f 155/203/53 138/212/53 156/201/53
f 154/202/84 137/213/84 155/203/84
f 153/207/53 136/215/53 154/202/53
f 152/208/53 135/214/53 153/207/53
f 151/125/53 134/216/53 152/208/53
f 89/110/43 91/217/43 87/111/43
f 87/111/44 91/218/44 105/113/44
f 91/115/45 89/122/45 124/116/45
f 86/118/46 88/175/46 92/119/46
f 85/112/47 87/111/47 115/114/47
f 89/122/48 85/112/48 106/121/48
f 96/123/49 93/126/49 133/124/49
f 93/126/50 95/130/50 142/127/50
f 94/128/51 96/123/51 151/125/51
f 95/130/52 94/164/52 168/131/52
f 132/132/53 114/134/53 93/126/53
f 131/133/54 113/136/54 114/134/54
f 130/135/55 112/138/55 113/136/55
f 129/137/56 111/140/56 112/138/56
f 128/139/53 110/142/53 111/140/53
f 127/141/53 109/144/53 110/142/53
f 126/143/57 108/146/57 109/144/57
f 125/145/58 107/147/58 108/146/58
f 124/116/59 106/121/59 107/147/59
f 114/134/60 123/148/60 95/130/60
f 113/136/61 122/149/61 123/148/61
f 112/138/62 121/150/62 122/149/62
f 111/140/63 120/151/63 121/150/63
f 110/142/60 119/152/60 120/151/60
f 109/144/60 118/153/60 119/152/60
f 108/146/64 117/154/64 118/153/64
f 107/147/65 116/155/65 117/154/65
f 106/121/66 115/114/66 116/155/66
f 97/156/67 132/132/67 96/123/67
f 98/157/68 131/133/68 132/132/68
f 98/157/69 99/158/69 130/135/69
f 99/158/70 100/160/70 129/137/70
f 101/159/67 128/139/67 129/137/67
f 102/161/67 127/141/67 128/139/67
f 103/162/71 126/143/71 127/141/71
f 104/163/72 125/145/72 126/143/72
f 105/117/73 124/116/73 125/145/73
f 123/148/74 97/165/74 94/164/74
f 122/149/75 98/166/75 97/165/75
f 121/150/76 99/167/76 98/166/76
f 120/151/77 100/168/77 99/167/77
f 119/152/74 101/169/74 100/168/74
f 118/153/74 102/170/74 101/169/74
f 117/154/78 103/171/78 102/170/78
f 116/155/79 104/172/79 103/171/79
f 115/114/80 105/113/80 104/172/80
f 150/173/74 160/177/74 92/174/74
f 149/176/74 161/179/74 160/177/74
f 148/178/74 162/181/74 161/179/74
f 147/180/74 163/183/74 162/181/74
f 146/182/74 164/185/74 163/183/74
f 145/184/81 165/187/81 164/185/81
f 144/186/74 166/189/74 165/187/74
f 143/188/74 167/190/74 166/189/74
f 142/127/74 168/131/74 167/190/74
f 160/191/67 159/195/67 90/192/67
f 161/194/67 158/197/67 159/195/67
f 162/196/67 157/199/67 158/197/67
f 163/198/67 156/201/67 157/199/67
f 164/200/67 155/203/67 156/201/67
f 164/200/82 165/205/82 154/202/82
f 166/204/67 153/207/67 154/202/67
f 167/206/67 152/208/67 153/207/67
f 168/129/67 151/125/67 152/208/67
f 141/209/60 150/173/60 88/175/60
f 140/210/60 149/176/60 150/173/60
f 139/211/60 148/178/60 149/176/60
f 138/212/60 147/180/60 148/178/60
f 137/213/60 146/182/60 147/180/60
f 137/213/83 136/215/83 145/184/83
f 135/214/60 144/186/60 145/184/60
f 134/216/60 143/188/60 144/186/60
f 133/124/60 142/127/60 143/188/60
f 159/195/53 141/209/53 86/118/53
f 158/197/53 140/210/53 141/209/53
f 157/199/53 139/211/53 140/210/53
f 156/201/53 138/212/53 139/211/53
f 155/203/53 137/213/53 138/212/53
f 154/202/84 136/215/84 137/213/84
f 153/207/53 135/214/53 136/215/53
f 152/208/53 134/216/53 135/214/53
f 151/125/53 133/124/53 134/216/53
